<?xml version="1.0" encoding="UTF-8" standalone="no"?>
<!-- Created with Inkscape (http://www.inkscape.org/) -->

<svg
   xmlns:dc="http://purl.org/dc/elements/1.1/"
   xmlns:cc="http://creativecommons.org/ns#"
   xmlns:rdf="http://www.w3.org/1999/02/22-rdf-syntax-ns#"
   xmlns:svg="http://www.w3.org/2000/svg"
   xmlns="http://www.w3.org/2000/svg"
   xmlns:sodipodi="http://sodipodi.sourceforge.net/DTD/sodipodi-0.dtd"
   xmlns:inkscape="http://www.inkscape.org/namespaces/inkscape"
   width="744.09448819"
   height="1052.3622047"
   id="svg6464"
   version="1.1"
   inkscape:version="0.48.0 r9654"
   sodipodi:docname="New document 14">
  <defs
     id="defs6466" />
  <sodipodi:namedview
     id="base"
     pagecolor="#ffffff"
     bordercolor="#666666"
     borderopacity="1.0"
     inkscape:pageopacity="0.0"
     inkscape:pageshadow="2"
     inkscape:zoom="0.35"
     inkscape:cx="-494.66818"
     inkscape:cy="288.47862"
     inkscape:document-units="px"
     inkscape:current-layer="layer1"
     showgrid="false"
     inkscape:window-width="802"
     inkscape:window-height="665"
     inkscape:window-x="562"
     inkscape:window-y="42"
     inkscape:window-maximized="0" />
  <metadata
     id="metadata6469">
    <rdf:RDF>
      <cc:Work
         rdf:about="">
        <dc:format>image/svg+xml</dc:format>
        <dc:type
           rdf:resource="http://purl.org/dc/dcmitype/StillImage" />
        <dc:title></dc:title>
      </cc:Work>
    </rdf:RDF>
  </metadata>
  <g
     inkscape:label="Layer 1"
     inkscape:groupmode="layer"
     id="layer1">
    <rect
       style="fill:#04c800;fill-opacity:0.42056077;fill-rule:evenodd;stroke-width:2;stroke-miterlimit:4;stroke-dasharray:none"
       id="rect6472"
       width="153.80701"
       height="101.01525"
       x="-164.78107"
       y="123.29126"
       transform="matrix(-0.92604039,-0.37742443,0,1,0,0)" />
    <rect
       y="213.95705"
       x="67.550476"
       height="149.51112"
       width="122.38401"
       id="rect6474"
       style="fill:#04c800;fill-opacity:0.42056077;fill-rule:evenodd;stroke-width:2;stroke-miterlimit:4;stroke-dasharray:none"
       transform="matrix(-0.96528255,0.26120795,0.93076879,0.36560834,0,0)" />
    <rect
       transform="matrix(-0.96363682,0.26721542,0,1,0,0)"
       y="228.55232"
       x="-282.06918"
       height="102.67548"
       width="120.55116"
       id="rect6478"
       style="fill:#04c800;fill-opacity:0.42056077;fill-rule:evenodd;stroke-width:2;stroke-miterlimit:4;stroke-dasharray:none" />
    <rect
       style="fill:#700018;fill-opacity:0.42056077;fill-rule:evenodd;stroke-width:2;stroke-miterlimit:4;stroke-dasharray:none"
       id="rect6480"
       width="75.437241"
       height="45.490524"
       x="-589.3407"
       y="590.62665"
       transform="matrix(-0.99088291,-0.13472585,-0.7750226,0.63193352,0,0)" />
    <rect
       style="fill:#700018;fill-opacity:0.42056077;fill-rule:evenodd;stroke-width:2;stroke-miterlimit:4;stroke-dasharray:none"
       id="rect6990"
       width="78.434944"
       height="101.01525"
       x="12.244102"
       y="472.978"
       transform="matrix(0.99167207,0.1287886,0,1,0,0)" />
    <rect
       style="fill:#700018;fill-opacity:0.42056077;fill-rule:evenodd;stroke-width:2;stroke-miterlimit:4;stroke-dasharray:none"
       id="rect6992"
       width="42.755363"
       height="101.24787"
       x="124.25777"
       y="566.68927"
       transform="matrix(0.75604269,-0.65452231,0,1,0,0)" />
    <rect
       style="fill:#700018;fill-opacity:0.42056077;fill-rule:evenodd;stroke-width:2;stroke-miterlimit:4;stroke-dasharray:none"
       id="rect6994"
       width="371.16632"
       height="141.7859"
       x="909.47211"
       y="1002.652"
       transform="matrix(0.99143444,0.13060534,-0.88850535,0.45886625,0,0)" />
    <rect
       style="fill:#700018;fill-opacity:0.42056077;fill-rule:evenodd;stroke-width:2;stroke-miterlimit:4;stroke-dasharray:none"
       id="rect6996"
       width="370.4191"
       height="93.924118"
       x="-103.49546"
       y="662.62634"
       transform="matrix(0.99080849,0.13527205,-0.01800719,0.99983786,0,0)" />
    <rect
       style="fill:#700018;fill-opacity:0.42056077;fill-rule:evenodd;stroke-width:2;stroke-miterlimit:4;stroke-dasharray:none"
       id="rect7000"
       width="143.21739"
       height="97.984795"
       x="287.54861"
       y="827.60883"
       transform="matrix(0.88871336,-0.45846327,0,1,0,0)" />
    <rect
       style="fill:#700018;fill-opacity:0.42056077;fill-rule:evenodd;stroke-width:2;stroke-miterlimit:4;stroke-dasharray:none"
       id="rect7002"
       width="97.619057"
       height="128.83636"
       x="1002.4031"
       y="999.87482"
       transform="matrix(0.99002316,0.14090475,-0.8401961,0.54228269,0,0)" />
    <rect
       style="fill:#700018;fill-opacity:0.42056077;fill-rule:evenodd;stroke-width:2;stroke-miterlimit:4;stroke-dasharray:none"
       id="rect7004"
       width="130.74666"
       height="173.54243"
       x="166.75609"
       y="861.42456"
       transform="matrix(0.84213721,-0.53926332,0,1,0,0)" />
    <rect
       style="fill:#700018;fill-opacity:0.42056077;fill-rule:evenodd;stroke-width:2;stroke-miterlimit:4;stroke-dasharray:none"
       id="rect7008"
       width="99.021255"
       height="177.63953"
       x="39.833191"
       y="749.62915"
       transform="matrix(0.98953298,0.14430689,0,1,0,0)" />
    <rect
       style="fill:#700018;fill-opacity:0.42056077;fill-rule:evenodd;stroke-width:2;stroke-miterlimit:4;stroke-dasharray:none"
       id="rect7010"
       width="238.25359"
       height="141.66637"
       x="1475.9291"
       y="1228.0311"
       transform="matrix(0.99366121,0.11241622,-0.88678522,0.46218175,0,0)" />
    <rect
       style="fill:#700018;fill-opacity:0.42056077;fill-rule:evenodd;stroke-width:2;stroke-miterlimit:4;stroke-dasharray:none"
       id="rect7012"
       width="235.85863"
       height="182.51503"
       x="255.19507"
       y="773.07819"
       transform="matrix(0.99362653,0.11272234,0,1,0,0)" />
    <rect
       style="fill:#700018;fill-opacity:0.42056077;fill-rule:evenodd;stroke-width:2;stroke-miterlimit:4;stroke-dasharray:none"
       id="rect7014"
       width="94.895218"
       height="182.83762"
       x="555.65149"
       y="1089.3524"
       transform="matrix(0.88352885,-0.46837675,0,1,0,0)" />
    <rect
       style="fill:#700018;fill-opacity:0.42056077;fill-rule:evenodd;stroke-width:2;stroke-miterlimit:4;stroke-dasharray:none"
       id="rect7016"
       width="42.069515"
       height="96.082344"
       x="651.50897"
       y="1081.7072"
       transform="matrix(0.88842591,-0.45902005,0,1,0,0)" />
    <rect
       style="fill:#700018;fill-opacity:0.42056077;fill-rule:evenodd;stroke-width:2;stroke-miterlimit:4;stroke-dasharray:none"
       id="rect7018"
       width="63.148678"
       height="172.73608"
       x="322.85257"
       y="401.94464"
       transform="matrix(0.99177787,0.12797133,0,1,0,0)" />
    <rect
       style="fill:#700018;fill-opacity:0.42056077;fill-rule:evenodd;stroke-width:2;stroke-miterlimit:4;stroke-dasharray:none"
       id="rect7020"
       width="63.703766"
       height="205.28017"
       x="1013.2365"
       y="552.27484"
       transform="matrix(0.99259905,0.12143778,-0.90837286,0.41816116,0,0)" />
    <rect
       style="fill:#700018;fill-opacity:0.42056077;fill-rule:evenodd;stroke-width:2;stroke-miterlimit:4;stroke-dasharray:none"
       id="rect7022"
       width="203.75566"
       height="93.584641"
       x="424.09958"
       y="624.03345"
       transform="matrix(0.91221057,-0.4097217,0,1,0,0)" />
    <rect
       style="fill:#700018;fill-opacity:0.42056077;fill-rule:evenodd;stroke-width:2;stroke-miterlimit:4;stroke-dasharray:none"
       id="rect7024"
       width="141.86938"
       height="179.39468"
       x="424.49982"
       y="722.44458"
       transform="matrix(0.91139834,-0.41152528,0,1,0,0)" />
    <path
       sodipodi:type="arc"
       style="fill:#700018;fill-opacity:0.42056076999999997;fill-rule:evenodd;stroke-width:2;stroke-miterlimit:4;stroke-dasharray:none;marker-start:none;stroke:none"
       id="path7026"
       sodipodi:cx="-282.85715"
       sodipodi:cy="1306.6479"
       sodipodi:rx="168.57143"
       sodipodi:ry="117.14286"
       d="m -114.28572,1306.6479 a 168.57143,117.14286 0 1 1 -337.14285,0 168.57143,117.14286 0 1 1 337.14285,0 z" />
    <path
       sodipodi:type="arc"
       style="fill:#700018;fill-opacity:0.42056077;fill-rule:evenodd;stroke:none"
       id="path7208"
       sodipodi:cx="-421.42856"
       sodipodi:cy="910.93359"
       sodipodi:rx="84.285713"
       sodipodi:ry="61.42857"
       d="m -337.14285,910.93359 a 84.285713,61.42857 0 1 1 -168.57142,0 84.285713,61.42857 0 1 1 168.57142,0 z" />
    <path
       sodipodi:type="arc"
       style="fill:#700018;fill-opacity:0.42056077;fill-rule:evenodd;stroke:none"
       id="path7210"
       sodipodi:cx="-651.42859"
       sodipodi:cy="1212.3622"
       sodipodi:rx="42.857143"
       sodipodi:ry="51.42857"
       d="m -608.57145,1212.3622 a 42.857143,51.42857 0 1 1 -85.71428,0 42.857143,51.42857 0 1 1 85.71428,0 z" />
    <path
       sodipodi:type="arc"
       style="fill:#700018;fill-opacity:0.42056076999999997;fill-rule:nonzero;stroke:none"
       id="path7212"
       sodipodi:cx="-552.85712"
       sodipodi:cy="1582.3622"
       sodipodi:rx="64.285713"
       sodipodi:ry="118.57143"
       d="m -488.5714,1582.3622 a 64.285713,118.57143 0 1 1 -128.57143,0 64.285713,118.57143 0 1 1 128.57143,0 z" />
  </g>
</svg>
